# xmcd
#
# Track frame offsets:
#	150
#	13105
#	30767
#	49651
#	79713
#	100277
#	128917
#	146916
#	170618
#	195238
#	207343
#	222400
#	234902
#	268111
#	281026
#	293328
#	323390
#
# Disc length: 4444 seconds
#
# Revision: 0
# Processed by: cddbd v1.5.1PL2 Copyright (c) Steve Scherf et al.
# Submitted via: dBpowerAMP V4.0
#
DISCID=eb115a11
DTITLE=Various Artist - The Blues Guitar Box
DYEAR=1900
DGENRE=
TTITLE0=Statesbro Blues
TTITLE1=If You Have To Know
TTITLE2=Steppin Out
TTITLE3=Blues For Barry and Michael
TTITLE4=Big Bird
TTITLE5=Long Distance Call
TTITLE6=Worried Blues
TTITLE7=Little Red Rooster
TTITLE8=Dont Take Advantage Of Me
TTITLE9=Steelin
TTITLE10=Goin Down
TTITLE11=Prancin
TTITLE12=The Blues For You
TTITLE13=Freight Loader
TTITLE14=The Is Shining
TTITLE15=City Of Angels
TTITLE16=Im Ready
EXTD=
EXTT0=
EXTT1=
EXTT2=
EXTT3=
EXTT4=
EXTT5=
EXTT6=
EXTT7=
EXTT8=
EXTT9=
EXTT10=
EXTT11=
EXTT12=
EXTT13=
EXTT14=
EXTT15=
EXTT16=
PLAYORDER=
